<?xml version="1.0" encoding="utf-8"?>
<!-- Generator: Adobe Illustrator 23.1.1, SVG Export Plug-In . SVG Version: 6.00 Build 0)  -->
<svg version="1.1" xmlns="http://www.w3.org/2000/svg" x="0px" y="0px"
     viewBox="0 0 1200 1200" style="enable-background:new 0 0 1200 1200;" xml:space="preserve">
<style type="text/css">
	.st0{fill:#1C1C1C;}
	.st1{opacity:0.12;}
	.st2{opacity:0.2;fill:none;stroke:#353535;stroke-miterlimit:10;}
	.st3{opacity:0.7;fill:none;stroke:#353535;stroke-width:3;stroke-miterlimit:10;}
	.st4{fill:#353535;}
	.st5{fill:#686868;}
	.st6{fill:none;stroke:#686868;stroke-width:3;stroke-miterlimit:10;}
</style>
    <g id="Livello_2">
</g>
    <g id="Livello_1">
	<g>
		<rect x="0" class="st0" width="1200" height="1200"/>
        <g class="st1">
			<circle class="st2" cx="194.65" cy="431.16" r="107.55"/>
            <circle class="st2" cx="194.65" cy="431.16" r="85.64"/>
            <g>
				<path class="st3"
                      d="M149.11,528.62c-15.72-7.33-29.89-18.57-40.92-33.49c-35.33-47.75-25.25-115.1,22.5-150.43"/>
                <circle class="st4" cx="130.54" cy="344.81" r="7.37"/>
                <circle class="st5" cx="149.29" cy="528.4" r="7.37"/>
			</g>
            <g>
				<path class="st6"
                      d="M225.24,328.05c21.62,6.4,41.42,19.62,55.87,39.15c25.8,34.88,27.39,80.22,7.75,115.89"/>
                <circle class="st5" cx="225.05" cy="328.27" r="7.37"/>
                <circle class="st4" cx="288.93" cy="483.05" r="7.37"/>
			</g>
		</g>
        <g class="st1">
			<circle class="st2" cx="544.69" cy="115.36" r="58.94"/>
            <circle class="st2" cx="544.69" cy="115.36" r="46.93"/>
            <g>
				<path class="st3" d="M491.6,140.99c-4.14-8.56-6.26-18.24-5.78-28.4c1.53-32.51,29.13-57.63,61.64-56.1"/>
                <circle class="st4" cx="547.36" cy="56.48" r="4.04"/>
                <circle class="st5" cx="491.75" cy="140.96" r="4.04"/>
			</g>
            <g>
				<path class="st6"
                      d="M593.39,82.16c6.97,10.2,10.8,22.68,10.17,35.97c-1.12,23.75-16.14,43.55-36.84,51.91"/>
                <circle class="st5" cx="593.23" cy="82.18" r="4.04"/>
                <circle class="st4" cx="566.76" cy="170.05" r="4.04"/>
			</g>
		</g>
        <g class="st1">
			<circle class="st2" cx="996.19" cy="1000.34" r="98.42"/>
            <circle class="st2" cx="996.19" cy="1000.34" r="78.37"/>
            <g>
				<path class="st3"
                      d="M1037.86,1089.53c14.38-6.71,27.35-16.99,37.45-30.65c32.33-43.7,23.11-105.33-20.59-137.66"/>
                <circle class="st4" cx="1054.86" cy="921.32" r="6.74"/>
                <circle class="st5" cx="1037.69" cy="1089.33" r="6.74"/>
			</g>
            <g>
				<path class="st6"
                      d="M968.19,905.98c-19.79,5.86-37.91,17.96-51.13,35.83c-23.61,31.92-25.06,73.41-7.09,106.06"/>
                <circle class="st5" cx="968.37" cy="906.18" r="6.74"/>
                <circle class="st4" cx="909.9" cy="1047.83" r="6.74"/>
			</g>
		</g>
        <g class="st1">
			<circle class="st2" cx="675.85" cy="711.34" r="53.94"/>
            <circle class="st2" cx="675.85" cy="711.34" r="42.95"/>
            <g>
				<path class="st3"
                      d="M724.44,734.79c3.79-7.83,5.73-16.69,5.29-25.99c-1.4-29.75-26.66-52.74-56.41-51.34"/>
                <circle class="st4" cx="673.41" cy="657.46" r="3.69"/>
                <circle class="st5" cx="724.29" cy="734.76" r="3.69"/>
			</g>
            <g>
				<path class="st6"
                      d="M631.29,680.96c-6.38,9.34-9.88,20.75-9.31,32.92c1.02,21.73,14.77,39.86,33.71,47.5"/>
                <circle class="st5" cx="631.43" cy="680.98" r="3.69"/>
                <circle class="st4" cx="655.65" cy="761.39" r="3.69"/>
			</g>
		</g>
	</g>
</g>
</svg>
